<?xml version="1.0" encoding="utf-8"?>
<!-- Generated by IcoMoon.io -->
<!DOCTYPE svg PUBLIC "-//W3C//DTD SVG 1.1//EN" "http://www.w3.org/Graphics/SVG/1.1/DTD/svg11.dtd">
<svg version="1.1" xmlns="http://www.w3.org/2000/svg" xmlns:xlink="http://www.w3.org/1999/xlink" width="200" height="200" viewBox="0 0 200 200">
<g>
</g>
	<path d="M166.669 0h-133.332c-18.334 0-33.337 15.003-33.337 33.337v133.325c0 18.347 15.002 33.337 33.337 33.337l133.332-0c18.335 0 33.331-14.989 33.331-33.338v-133.325c0-18.335-14.996-33.337-33.331-33.337zM170.037 100h-32.537v87.5h-37.5v-87.5h-18.071v-28.626h18.071v-18.591c0-25.262 10.897-40.283 40.6-40.283h34.227v30.971h-27.955c-8.297-0.014-9.327 4.327-9.327 12.405l-0.045 15.499h37.5l-4.963 28.626z" fill="#37b6e6" />
</svg>
