<?xml version="1.0" encoding="utf-8"?>
<!-- Generated by IcoMoon.io -->
<!DOCTYPE svg PUBLIC "-//W3C//DTD SVG 1.1//EN" "http://www.w3.org/Graphics/SVG/1.1/DTD/svg11.dtd">
<svg version="1.1" xmlns="http://www.w3.org/2000/svg" xmlns:xlink="http://www.w3.org/1999/xlink" width="200" height="200" viewBox="0 0 200 200">
<g>
</g>
	<path d="M166.67 0h-133.34c-18.408 0-33.33 14.926-33.33 33.337v133.326c0 18.411 14.921 33.337 33.33 33.337h133.34c18.408 0 33.33-14.925 33.33-33.337v-133.326c0-18.411-14.922-33.337-33.33-33.337zM109.696 133.617c-9.086-0.706-12.899-5.206-20.020-9.533-3.918 20.543-8.704 40.238-22.879 50.525-4.376-31.048 6.425-54.368 11.439-79.124-8.552-14.396 1.029-43.366 19.066-36.225 22.193 8.779-19.219 53.517 8.58 59.105 29.027 5.834 40.877-50.363 22.879-68.637-26.007-26.388-75.703-0.602-69.592 37.179 1.487 9.237 11.030 12.039 3.813 24.786-16.645-3.69-21.611-16.817-20.972-34.319 1.029-28.647 25.739-48.704 50.525-51.478 31.345-3.509 60.763 11.505 64.825 40.991 4.572 33.279-14.15 69.322-47.666 66.73z" fill="#37b6e6" />
</svg>
