<?xml version="1.0" encoding="utf-8"?>
<!-- Generated by IcoMoon.io -->
<!DOCTYPE svg PUBLIC "-//W3C//DTD SVG 1.1//EN" "http://www.w3.org/Graphics/SVG/1.1/DTD/svg11.dtd">
<svg version="1.1" xmlns="http://www.w3.org/2000/svg" xmlns:xlink="http://www.w3.org/1999/xlink" width="200" height="200" viewBox="0 0 200 200">
<g>
</g>
	<path d="M166.676 0h-133.338c-18.336 0-33.337 15.003-33.337 33.337v133.325c0 18.347 15.002 33.338 33.337 33.338h133.338c18.334 0 33.324-14.99 33.324-33.338v-133.326c-0.002-18.334-14.992-33.337-33.324-33.337zM142.913 161.072c-5.889 2.771-11.236 4.724-16.016 5.847-4.784 1.111-9.953 1.671-15.508 1.671-6.311 0-10.034-0.793-14.88-2.38-4.845-1.599-8.984-3.881-12.402-6.811-3.429-2.955-5.798-6.093-7.122-9.413-1.325-3.321-1.984-8.143-1.984-14.454v-48.399h-18.749v-19.544c5.419-1.758 11.706-4.284 15.563-7.568 3.875-3.295 6.976-7.238 9.313-11.852 2.345-4.603 3.955-10.474 4.834-17.591h19.629v31.922h31.909v24.634h-31.91v35.388c0 8.008-0.103 12.622 0.745 14.893 0.842 2.258 2.954 4.602 5.254 5.957 3.058 1.831 6.544 2.746 10.474 2.746 6.989 0 13.941-2.271 20.85-6.812v21.766z" fill="#37b6e6" />
</svg>
